<svg width="245" height="19" viewBox="0 0 245 19" fill="none" xmlns="http://www.w3.org/2000/svg">
  <path d="M1.10173 2.09487H6.20686V2.46154L4.59916 2.71538V15.5769H9.78891L11.1992 11.7692H11.6787V16H1.10173V15.6333L2.68121 15.3795V2.71538L1.10173 2.46154V2.09487ZM32.8001 12.1923C32.8001 13.5838 32.4052 14.6274 31.6155 15.3231C30.8445 16.0188 29.5941 16.3667 27.8642 16.3667C26.1343 16.3667 24.8745 15.9812 24.0847 15.2103C23.3138 14.4393 22.9283 13.4333 22.9283 12.1923V2.71538L21.3206 2.46154V2.09487H26.454V2.46154L24.8463 2.71538V12.1923C24.8463 14.5427 26.1249 15.7274 28.6822 15.7462C31.1454 15.7462 32.377 14.5615 32.377 12.1923V3.16667L30.7693 2.46154V2.09487H34.4642V2.46154L32.8001 3.16667V12.1923ZM47.8864 15.6333V16H43.7403V15.6333L45.4326 14.6744L49.4095 9.34359L45.0095 2.71538L43.5428 2.46154V2.09487H48.8172V2.46154L47.4351 2.68718L50.8198 7.79231L54.148 3.30769L52.1172 2.46154V2.09487H56.2634V2.46154L54.5993 3.39231L51.0454 8.13077L55.8685 15.4077L57.3634 15.6333V16H52.089V15.6333L53.4428 15.4077L49.6634 9.71026L45.8275 14.8154L47.8864 15.6333ZM77.5778 12.1923C77.5778 13.5838 77.183 14.6274 76.3932 15.3231C75.6223 16.0188 74.3719 16.3667 72.6419 16.3667C70.912 16.3667 69.6522 15.9812 68.8625 15.2103C68.0915 14.4393 67.706 13.4333 67.706 12.1923V2.71538L66.0984 2.46154V2.09487H71.2317V2.46154L69.624 2.71538V12.1923C69.624 14.5427 70.9026 15.7274 73.4599 15.7462C75.9231 15.7462 77.1548 14.5615 77.1548 12.1923V3.16667L75.5471 2.46154V2.09487H79.2419V2.46154L77.5778 3.16667V12.1923ZM101.126 14.7872L101.408 15.0974C100.787 15.812 100.101 16.1692 99.3488 16.1692C98.5966 16.1692 98.0513 16.0188 97.7129 15.7179C97.3932 15.3983 97.1864 14.8624 97.0924 14.1103L96.7539 11.7692C96.5095 10.0957 95.5787 9.25897 93.9616 9.25897H92.6078V15.3795L94.2154 15.6333V16H89.1103V15.6333L90.6898 15.3795V2.71538L89.1103 2.46154V2.09487H93.9616C95.8419 2.09487 97.2052 2.39573 98.0513 2.99744C98.8975 3.58034 99.3206 4.4735 99.3206 5.67692C99.3206 7.67009 98.1172 8.8265 95.7103 9.14615V9.25897C97.5343 9.50342 98.5966 10.4906 98.8975 12.2205L99.0949 13.7154C99.189 14.2983 99.2924 14.7308 99.4052 15.0128C99.5368 15.2761 99.7531 15.4077 100.054 15.4077C100.374 15.4077 100.731 15.2009 101.126 14.7872ZM93.9616 2.54615H92.6078V8.8359H94.5539C95.4001 8.8359 96.0582 8.58205 96.5283 8.07436C96.9984 7.54786 97.2334 6.77692 97.2334 5.76154V5.42308C97.2334 3.50513 96.1428 2.54615 93.9616 2.54615ZM116.811 9.51282V15.3795L118.419 15.6333V16H113.314V15.6333L114.922 15.3795V10.1051L110.691 2.71538L109.337 2.46154V2.09487H114.583V2.46154L112.947 2.71538L116.614 9.03333L119.942 3.30769L117.883 2.46154V2.09487H121.775V2.46154L120.422 3.30769L116.811 9.51282Z" fill="#050505"/>
  <path d="M159.792 1.72821H160.158V5.31026H159.792L158.551 2.77179C157.686 2.35812 156.745 2.15128 155.73 2.15128C154.715 2.15128 153.915 2.40513 153.333 2.91282C152.75 3.42051 152.458 4.04103 152.458 4.77436C152.458 5.50769 152.665 6.05299 153.079 6.41026C153.492 6.76752 154.094 7.04957 154.884 7.25641L158.015 8.10256C159.03 8.34701 159.782 8.77949 160.271 9.4C160.76 10.0205 161.004 10.9701 161.004 12.2487C161.004 13.5085 160.6 14.5145 159.792 15.2667C159.002 16 157.996 16.3667 156.774 16.3667C155.57 16.3667 154.451 16.047 153.417 15.4077L151.951 16.1692H151.584V11.7128H151.951L153.445 14.9282C154.404 15.6051 155.448 15.9436 156.576 15.9436C157.704 15.9436 158.598 15.6803 159.256 15.1538C159.933 14.6274 160.271 13.8658 160.271 12.8692C160.271 12.1547 160.055 11.6 159.622 11.2051C159.209 10.7915 158.513 10.4624 157.535 10.2179L154.658 9.48462C153.662 9.22137 152.9 8.77009 152.374 8.13077C151.866 7.47265 151.612 6.71111 151.612 5.84615C151.612 4.60513 151.969 3.60855 152.684 2.85641C153.417 2.10427 154.367 1.72821 155.533 1.72821C156.698 1.72821 157.695 1.91624 158.522 2.29231L159.792 1.72821ZM181.732 5.95897L180.463 2.54615H177.558V15.3795L179.166 15.6333V16H174.061V15.6333L175.64 15.3795V2.54615H172.791L171.438 5.95897H170.958V2.09487H182.268V5.95897H181.732ZM194.702 15.6333V16H190.979V15.6333L192.672 14.9282L197.72 1.72821H197.974L202.741 15.3795L204.349 15.6333V16H199.243V15.6333L200.654 15.4077L199.159 11.2897H194.561L193.151 14.9282L194.702 15.6333ZM196.959 4.80256L194.702 10.9231H199.046L196.959 4.80256ZM219.701 9.51282V15.3795L221.309 15.6333V16H216.204V15.6333L217.811 15.3795V10.1051L213.581 2.71538L212.227 2.46154V2.09487H217.473V2.46154L215.837 2.71538L219.504 9.03333L222.832 3.30769L220.773 2.46154V2.09487H224.665V2.46154L223.311 3.30769L219.701 9.51282ZM242.601 1.72821H242.968V5.31026H242.601L241.36 2.77179C240.495 2.35812 239.555 2.15128 238.539 2.15128C237.524 2.15128 236.725 2.40513 236.142 2.91282C235.559 3.42051 235.268 4.04103 235.268 4.77436C235.268 5.50769 235.474 6.05299 235.888 6.41026C236.302 6.76752 236.903 7.04957 237.693 7.25641L240.824 8.10256C241.839 8.34701 242.592 8.77949 243.08 9.4C243.569 10.0205 243.814 10.9701 243.814 12.2487C243.814 13.5085 243.409 14.5145 242.601 15.2667C241.811 16 240.805 16.3667 239.583 16.3667C238.38 16.3667 237.261 16.047 236.227 15.4077L234.76 16.1692H234.393V11.7128H234.76L236.255 14.9282C237.214 15.6051 238.257 15.9436 239.386 15.9436C240.514 15.9436 241.407 15.6803 242.065 15.1538C242.742 14.6274 243.08 13.8658 243.08 12.8692C243.08 12.1547 242.864 11.6 242.432 11.2051C242.018 10.7915 241.322 10.4624 240.345 10.2179L237.468 9.48462C236.471 9.22137 235.709 8.77009 235.183 8.13077C234.675 7.47265 234.421 6.71111 234.421 5.84615C234.421 4.60513 234.779 3.60855 235.493 2.85641C236.227 2.10427 237.176 1.72821 238.342 1.72821C239.508 1.72821 240.504 1.91624 241.332 2.29231L242.601 1.72821Z" fill="#050505"/>
  <path d="M136.306 4.875C136.306 5.78203 135.685 6.53906 134.859 6.7125C134.841 6.72422 134.861 6.73828 134.861 6.75V7.5H136.306C136.504 7.5 136.667 7.66875 136.667 7.875C136.667 8.08125 136.504 8.25 136.306 8.25H134.861V14.25H135.583C137.378 14.25 138.833 12.7383 138.833 10.875V10.2797L138.005 11.1398C137.865 11.2875 137.635 11.2875 137.495 11.1398C137.353 10.9945 137.353 10.7555 137.495 10.6102L138.939 9.11016C139.079 8.9625 139.31 8.9625 139.449 9.11016L140.894 10.6102C141.036 10.7555 141.036 10.9945 140.894 11.1398C140.754 11.2875 140.524 11.2875 140.384 11.1398L139.556 10.2797V10.875C139.556 13.1531 137.777 15 135.583 15H133.396C131.223 15 129.424 13.1531 129.424 10.875V10.2797L128.616 11.1398C128.475 11.2875 128.247 11.2875 128.106 11.1398C127.965 10.9945 127.965 10.7555 128.106 10.6102L129.55 9.11016C129.691 8.9625 129.92 8.9625 130.061 9.11016L131.505 10.6102C131.647 10.7555 131.647 10.9945 131.505 11.1398C131.365 11.2875 131.135 11.2875 130.995 11.1398L130.146 10.2797V10.875C130.146 12.7383 131.622 14.25 133.396 14.25H134.119V8.25H132.674C132.496 8.25 132.313 8.08125 132.313 7.875C132.313 7.66875 132.496 7.5 132.674 7.5H134.119V6.75C134.119 6.73828 134.139 6.72422 134.141 6.7125C133.315 6.53906 132.674 5.78203 132.674 4.875C132.674 3.83953 133.502 3 134.48 3C135.498 3 136.306 3.83953 136.306 4.875ZM134.48 6C135.098 6 135.583 5.49609 135.583 4.875C135.583 4.25367 135.098 3.75 134.48 3.75C133.902 3.75 133.396 4.25367 133.396 4.875C133.396 5.49609 133.902 6 134.48 6Z" fill="#B1B1B1"/>
</svg>